<?xml version="1.0" encoding="UTF-8"?>
<svg xmlns="http://www.w3.org/2000/svg" xmlns:xlink="http://www.w3.org/1999/xlink" width="0" height="0">

<symbol id="telegram" width="800px" height="800px" viewBox="0 0 15 15" fill="none">
<path d="M14.9932 1.58221C15.0223 1.40736 14.9567 1.23016 14.8208 1.11645C14.6848 1.00274 14.4988 0.969519 14.3318 1.02914L0.331836 6.02914C0.143209 6.0965 0.0129867 6.26994 0.000913704 6.46987C-0.0111592 6.6698 0.0972469 6.85765 0.276398 6.94722L4.2764 8.94722C4.43688 9.02746 4.62806 9.01556 4.77735 8.91603L8.09775 6.70244L6.10957 9.18766C6.02203 9.29709 5.98442 9.43824 6.00592 9.57672C6.02742 9.7152 6.10605 9.8383 6.22265 9.91603L12.2227 13.916C12.3638 14.0101 12.5431 14.0262 12.6988 13.9588C12.8545 13.8914 12.9653 13.7496 12.9932 13.5822L14.9932 1.58221Z" fill="#000000"/>
</symbol>

<symbol id="edit" width="800px" height="800px" viewBox="0 0 24 24" fill="none">
<path d="M20.1498 7.93997L8.27978 19.81C7.21978 20.88 4.04977 21.3699 3.32977 20.6599C2.60977 19.9499 3.11978 16.78 4.17978 15.71L16.0498 3.84C16.5979 3.31801 17.3283 3.03097 18.0851 3.04019C18.842 3.04942 19.5652 3.35418 20.1004 3.88938C20.6356 4.42457 20.9403 5.14781 20.9496 5.90463C20.9588 6.66146 20.6718 7.39189 20.1498 7.93997V7.93997Z" stroke="#000000" stroke-width="1.5" stroke-linecap="round" stroke-linejoin="round"/>
</symbol>

<symbol id="minus" width="800px" height="800px" viewBox="0 0 24 24" fill="none">
<path d="M6 12L18 12" stroke="#000000" stroke-width="2" stroke-linecap="round" stroke-linejoin="round"/>
</symbol>

<symbol id="plus" width="800px" height="800px" viewBox="0 0 24 24" fill="none">
<path d="M4 12H20M12 4V20" stroke="#000000" stroke-width="2" stroke-linecap="round" stroke-linejoin="round"/>
</symbol>


<symbol id="confirm" fill="#000000" height="800px" width="800px" 
	 viewBox="0 0 492 492" xml:space="preserve">
<g>
	<g>
		<path d="M484.128,104.478l-16.116-16.116c-5.064-5.068-11.816-7.856-19.024-7.856c-7.208,0-13.964,2.788-19.028,7.856
			L203.508,314.81L62.024,173.322c-5.064-5.06-11.82-7.852-19.028-7.852c-7.204,0-13.956,2.792-19.024,7.852l-16.12,16.112
			C2.784,194.51,0,201.27,0,208.47c0,7.204,2.784,13.96,7.852,19.028l159.744,159.736c0.212,0.3,0.436,0.58,0.696,0.836
			l16.12,15.852c5.064,5.048,11.82,7.572,19.084,7.572h0.084c7.212,0,13.968-2.524,19.024-7.572l16.124-15.992
			c0.26-0.256,0.48-0.468,0.612-0.684l244.784-244.76C494.624,132.01,494.624,114.966,484.128,104.478z"/>
	</g>
</g>
</symbol>
</svg>